<svg version="1.1" id="Layer_1" xmlns="http://www.w3.org/2000/svg" xmlns:xlink="http://www.w3.org/1999/xlink" x="0px" y="0px"
	 width="100%" viewBox="0 0 512 512" enable-background="new 0 0 512 512" xml:space="preserve">
<path fill="#151515" opacity="1.000000" stroke="none" 
	d="
M236.000000,513.000000 
	C157.352402,513.000000 79.204803,513.000000 1.028605,513.000000 
	C1.028605,342.394043 1.028605,171.788086 1.028605,1.091059 
	C171.564285,1.091059 342.128632,1.091059 512.846497,1.091059 
	C512.846497,171.666565 512.846497,342.333252 512.846497,513.000000 
	C420.788055,513.000000 328.644012,513.000000 236.000000,513.000000 
M306.971985,330.235229 
	C307.624115,327.710999 308.754730,325.202484 308.838226,322.659576 
	C309.084259,315.168182 309.202148,307.648041 308.807587,300.168823 
	C308.546204,295.214020 310.588440,291.978821 314.278534,289.179962 
	C336.826294,272.077850 348.096069,249.027191 348.603699,221.046646 
	C349.107178,193.291275 339.546295,169.206375 318.697296,150.431564 
	C292.282166,126.644394 261.269836,120.072723 227.966644,131.130966 
	C194.315872,142.304626 172.763229,165.750229 166.566193,201.654099 
	C163.841660,217.439209 164.044769,233.139267 169.191223,248.456650 
	C174.983337,265.695770 185.935089,279.163940 200.100189,290.349457 
	C202.213470,292.018188 203.857895,295.437653 204.048203,298.163849 
	C204.580765,305.792938 204.107819,313.485901 204.271652,321.148529 
	C204.499634,331.812164 208.758911,335.985748 219.224747,335.997375 
	C244.390366,336.025299 269.556396,335.935120 294.721344,336.068909 
	C299.608887,336.094879 303.509583,334.685150 306.971985,330.235229 
M277.498901,363.104340 
	C257.585968,363.104340 237.673019,363.104340 217.102692,363.104340 
	C217.102692,366.532135 217.045319,369.318237 217.123108,372.100525 
	C217.174011,373.920441 217.251938,375.768799 217.609100,377.545868 
	C219.139328,385.159363 222.782272,388.693512 230.516663,388.801605 
	C247.988312,389.045807 265.468079,389.038239 282.939728,388.791595 
	C289.950287,388.692657 295.119843,384.394165 295.714203,378.459747 
	C296.204041,373.568787 295.814178,368.589752 295.814178,363.104340 
	C289.724884,363.104340 284.111389,363.104340 277.498901,363.104340 
z"/>
<path fill="#00E275" opacity="1.000000" stroke="none" 
	d="
M306.735657,330.532501 
	C303.509583,334.685150 299.608887,336.094879 294.721344,336.068909 
	C269.556396,335.935120 244.390366,336.025299 219.224747,335.997375 
	C208.758911,335.985748 204.499634,331.812164 204.271652,321.148529 
	C204.107819,313.485901 204.580765,305.792938 204.048203,298.163849 
	C203.857895,295.437653 202.213470,292.018188 200.100189,290.349457 
	C185.935089,279.163940 174.983337,265.695770 169.191223,248.456650 
	C164.044769,233.139267 163.841660,217.439209 166.566193,201.654099 
	C172.763229,165.750229 194.315872,142.304626 227.966644,131.130966 
	C261.269836,120.072723 292.282166,126.644394 318.697296,150.431564 
	C339.546295,169.206375 349.107178,193.291275 348.603699,221.046646 
	C348.096069,249.027191 336.826294,272.077850 314.278534,289.179962 
	C310.588440,291.978821 308.546204,295.214020 308.807587,300.168823 
	C309.202148,307.648041 309.084259,315.168182 308.838226,322.659576 
	C308.754730,325.202484 307.624115,327.710999 306.735657,330.532501 
M278.508514,155.797165 
	C250.090744,146.614090 222.799759,154.623428 204.185730,178.224716 
	C192.858963,192.586258 188.284836,209.144623 191.772141,227.283417 
	C195.761932,248.035995 207.166962,264.123657 224.587494,275.877899 
	C228.458130,278.489532 230.314987,281.375183 230.068268,286.109497 
	C229.739182,292.424011 230.033554,298.769104 229.965439,305.100037 
	C229.934372,307.988098 230.676804,310.058655 234.044556,310.058838 
	C249.207184,310.059723 264.371124,310.141571 279.529999,309.902496 
	C280.760254,309.883087 282.853790,307.761688 283.000824,306.444550 
	C283.460114,302.329712 283.675262,298.060150 283.085144,293.980743 
	C281.602051,283.728241 285.667267,277.575867 294.329987,271.632751 
	C314.584564,257.737061 324.834503,238.327713 322.239105,212.890335 
	C319.397522,185.039536 305.077148,166.283203 278.508514,155.797165 
z"/>
<path fill="#00E173" opacity="1.000000" stroke="none" 
	d="
M277.998413,363.104340 
	C284.111389,363.104340 289.724884,363.104340 295.814178,363.104340 
	C295.814178,368.589752 296.204041,373.568787 295.714203,378.459747 
	C295.119843,384.394165 289.950287,388.692657 282.939728,388.791595 
	C265.468079,389.038239 247.988312,389.045807 230.516663,388.801605 
	C222.782272,388.693512 219.139328,385.159363 217.609100,377.545868 
	C217.251938,375.768799 217.174011,373.920441 217.123108,372.100525 
	C217.045319,369.318237 217.102692,366.532135 217.102692,363.104340 
	C237.673019,363.104340 257.585968,363.104340 277.998413,363.104340 
z"/>
<path fill="#151515" opacity="1.000000" stroke="none" 
	d="
M278.896973,155.881866 
	C305.077148,166.283203 319.397522,185.039536 322.239105,212.890335 
	C324.834503,238.327713 314.584564,257.737061 294.329987,271.632751 
	C285.667267,277.575867 281.602051,283.728241 283.085144,293.980743 
	C283.675262,298.060150 283.460114,302.329712 283.000824,306.444550 
	C282.853790,307.761688 280.760254,309.883087 279.529999,309.902496 
	C264.371124,310.141571 249.207184,310.059723 234.044556,310.058838 
	C230.676804,310.058655 229.934372,307.988098 229.965439,305.100037 
	C230.033554,298.769104 229.739182,292.424011 230.068268,286.109497 
	C230.314987,281.375183 228.458130,278.489532 224.587494,275.877899 
	C207.166962,264.123657 195.761932,248.035995 191.772141,227.283417 
	C188.284836,209.144623 192.858963,192.586258 204.185730,178.224716 
	C222.799759,154.623428 250.090744,146.614090 278.896973,155.881866 
M244.298157,227.343338 
	C241.066574,224.766968 237.834991,222.190613 233.515900,218.747238 
	C229.910110,229.627121 225.987885,239.791916 223.279068,250.270416 
	C221.690430,256.415802 225.672897,258.708649 232.128296,256.308228 
	C250.056198,249.641846 265.989105,239.605774 280.686462,227.512344 
	C285.253174,223.754730 286.253479,219.961197 283.943359,214.193100 
	C282.423767,210.398911 280.244141,206.869064 278.270020,203.046463 
	C283.649811,201.875793 286.304382,206.250839 290.055054,208.306564 
	C291.984680,209.364182 295.137543,210.551407 296.498322,209.699783 
	C298.278656,208.585526 299.796509,205.433701 299.622467,203.306015 
	C299.472260,201.469574 297.087555,199.311005 295.163696,198.254379 
	C292.839417,196.977844 289.959808,196.712402 286.952789,195.911377 
	C290.982025,192.110748 298.387085,191.365570 296.648926,184.312225 
	C295.989410,181.635986 292.827393,178.273010 290.216370,177.634613 
	C283.397675,175.967499 282.705536,183.448685 278.849121,187.157440 
	C277.926178,185.012436 277.570984,182.815674 276.295898,181.534286 
	C274.211731,179.439819 271.701355,177.508408 269.002472,176.430679 
	C268.079102,176.061966 264.796143,178.441528 264.775208,179.604752 
	C264.725281,182.376831 265.793335,185.240616 266.790344,187.926086 
	C267.211823,189.061325 268.764740,189.723557 269.496582,190.807846 
	C270.902710,192.891068 272.090057,195.121948 273.368134,197.291580 
	C269.282593,196.971222 266.116394,195.728745 262.899353,194.635834 
	C253.378693,191.401382 250.203247,192.689087 245.115036,201.893326 
	C248.996292,207.026733 256.235077,209.587799 258.166595,216.405334 
	C257.761108,216.819168 257.355652,217.232986 256.950165,217.646820 
	C251.954605,213.489014 246.959030,209.331207 241.674149,204.932617 
	C240.038162,208.640182 238.584610,211.934296 236.838120,215.892303 
	C241.439667,219.698090 246.122375,223.570999 250.805084,227.443893 
	C250.329132,228.043549 249.853180,228.643204 249.377228,229.242859 
	C247.890381,228.740433 246.403549,228.238022 244.298157,227.343338 
z"/>
<path fill="#01E073" opacity="1.000000" stroke="none" 
	d="
M244.607422,227.539474 
	C246.403549,228.238022 247.890381,228.740433 249.377228,229.242859 
	C249.853180,228.643204 250.329132,228.043549 250.805084,227.443893 
	C246.122375,223.570999 241.439667,219.698090 236.838120,215.892303 
	C238.584610,211.934296 240.038162,208.640182 241.674149,204.932617 
	C246.959030,209.331207 251.954605,213.489014 256.950165,217.646820 
	C257.355652,217.232986 257.761108,216.819168 258.166595,216.405334 
	C256.235077,209.587799 248.996292,207.026733 245.115036,201.893326 
	C250.203247,192.689087 253.378693,191.401382 262.899353,194.635834 
	C266.116394,195.728745 269.282593,196.971222 273.368134,197.291580 
	C272.090057,195.121948 270.902710,192.891068 269.496582,190.807846 
	C268.764740,189.723557 267.211823,189.061325 266.790344,187.926086 
	C265.793335,185.240616 264.725281,182.376831 264.775208,179.604752 
	C264.796143,178.441528 268.079102,176.061966 269.002472,176.430679 
	C271.701355,177.508408 274.211731,179.439819 276.295898,181.534286 
	C277.570984,182.815674 277.926178,185.012436 278.849121,187.157440 
	C282.705536,183.448685 283.397675,175.967499 290.216370,177.634613 
	C292.827393,178.273010 295.989410,181.635986 296.648926,184.312225 
	C298.387085,191.365570 290.982025,192.110748 286.952789,195.911377 
	C289.959808,196.712402 292.839417,196.977844 295.163696,198.254379 
	C297.087555,199.311005 299.472260,201.469574 299.622467,203.306015 
	C299.796509,205.433701 298.278656,208.585526 296.498322,209.699783 
	C295.137543,210.551407 291.984680,209.364182 290.055054,208.306564 
	C286.304382,206.250839 283.649811,201.875793 278.270020,203.046463 
	C280.244141,206.869064 282.423767,210.398911 283.943359,214.193100 
	C286.253479,219.961197 285.253174,223.754730 280.686462,227.512344 
	C265.989105,239.605774 250.056198,249.641846 232.128296,256.308228 
	C225.672897,258.708649 221.690430,256.415802 223.279068,250.270416 
	C225.987885,239.791916 229.910110,229.627121 233.515900,218.747238 
	C237.834991,222.190613 241.066574,224.766968 244.607422,227.539474 
z"/>
</svg>