<svg version="1.1" id="Layer_1" xmlns="http://www.w3.org/2000/svg" xmlns:xlink="http://www.w3.org/1999/xlink" x="0px" y="0px"
	 width="100%" viewBox="0 0 512 512" enable-background="new 0 0 512 512" xml:space="preserve">
<path fill="#151515" opacity="1.000000" stroke="none" 
	d="
M357.000000,513.000000 
	C238.028915,513.000000 119.557816,513.000000 1.043364,513.000000 
	C1.043364,342.403900 1.043364,171.807770 1.043364,1.105819 
	C171.554428,1.105819 342.108948,1.105819 512.831726,1.105819 
	C512.831726,171.666534 512.831726,342.333252 512.831726,513.000000 
	C461.141022,513.000000 409.320526,513.000000 357.000000,513.000000 
M220.333878,100.846313 
	C179.142303,116.584671 152.493332,145.466217 145.478867,189.280060 
	C138.412460,233.418335 151.665298,270.908661 188.620178,298.266510 
	C191.312195,300.259460 192.469543,302.327850 192.408295,305.697174 
	C192.217636,316.188446 192.176895,326.689148 192.398529,337.179413 
	C192.636322,348.434753 198.448303,354.032318 209.492538,354.039825 
	C240.810516,354.061066 272.133942,353.717285 303.443634,354.227966 
	C314.492615,354.408142 322.053162,347.635712 321.717102,335.740936 
	C321.434967,325.753876 321.781250,315.750183 321.596222,305.758545 
	C321.534424,302.420624 322.574921,300.276062 325.335724,298.307465 
	C372.670166,264.555511 378.048615,208.229309 363.297150,168.613556 
	C343.385132,115.138939 285.350372,80.905540 220.333878,100.846313 
M235.506226,418.931702 
	C253.317307,418.930176 271.128510,418.969574 288.939423,418.910187 
	C298.106934,418.879608 304.342621,413.905640 305.454681,404.914093 
	C306.157959,399.227661 305.585999,393.383484 305.585999,387.294556 
	C273.103668,387.294556 240.924118,387.294556 208.405762,387.294556 
	C208.405762,393.349121 207.848602,399.187408 208.533859,404.876068 
	C209.613052,413.835022 215.889328,418.806335 225.021729,418.920837 
	C228.183975,418.960510 231.347076,418.930084 235.506226,418.931702 
z"/>
<path fill="#00E576" opacity="1.000000" stroke="none" 
	d="
M220.706055,100.707817 
	C285.350372,80.905540 343.385132,115.138939 363.297150,168.613556 
	C378.048615,208.229309 372.670166,264.555511 325.335724,298.307465 
	C322.574921,300.276062 321.534424,302.420624 321.596222,305.758545 
	C321.781250,315.750183 321.434967,325.753876 321.717102,335.740936 
	C322.053162,347.635712 314.492615,354.408142 303.443634,354.227966 
	C272.133942,353.717285 240.810516,354.061066 209.492538,354.039825 
	C198.448303,354.032318 192.636322,348.434753 192.398529,337.179413 
	C192.176895,326.689148 192.217636,316.188446 192.408295,305.697174 
	C192.469543,302.327850 191.312195,300.259460 188.620178,298.266510 
	C151.665298,270.908661 138.412460,233.418335 145.478867,189.280060 
	C152.493332,145.466217 179.142303,116.584671 220.706055,100.707817 
M307.740631,271.266449 
	C334.231201,250.236923 343.033600,222.564423 336.191895,190.256149 
	C326.846191,146.123520 283.001282,118.910957 237.999969,129.225174 
	C192.588730,139.633331 160.927597,191.228119 182.752762,238.484985 
	C190.949707,256.233307 202.973724,270.505249 219.544632,280.818878 
	C223.301025,283.156860 224.489105,285.930939 224.334442,290.222534 
	C224.016678,299.040405 224.370712,307.880676 224.176605,316.705750 
	C224.099045,320.232117 224.926819,321.776031 228.852448,321.740143 
	C247.675735,321.568176 266.501984,321.588959 285.325867,321.725800 
	C288.915985,321.751923 289.883911,320.402740 289.817383,317.027679 
	C289.643341,308.201782 289.968750,299.363129 289.673309,290.543701 
	C289.525543,286.133606 290.602753,283.069305 294.590149,280.694672 
	C299.004425,278.065857 302.996033,274.727234 307.740631,271.266449 
z"/>
<path fill="#00E575" opacity="1.000000" stroke="none" 
	d="
M235.008011,418.931702 
	C231.347076,418.930084 228.183975,418.960510 225.021729,418.920837 
	C215.889328,418.806335 209.613052,413.835022 208.533859,404.876068 
	C207.848602,399.187408 208.405762,393.349121 208.405762,387.294556 
	C240.924118,387.294556 273.103668,387.294556 305.585999,387.294556 
	C305.585999,393.383484 306.157959,399.227661 305.454681,404.914093 
	C304.342621,413.905640 298.106934,418.879608 288.939423,418.910187 
	C271.128510,418.969574 253.317307,418.930176 235.008011,418.931702 
z"/>
<path fill="#151515" opacity="1.000000" stroke="none" 
	d="
M307.456177,271.482056 
	C302.996033,274.727234 299.004425,278.065857 294.590149,280.694672 
	C290.602753,283.069305 289.525543,286.133606 289.673309,290.543701 
	C289.968750,299.363129 289.643341,308.201782 289.817383,317.027679 
	C289.883911,320.402740 288.915985,321.751923 285.325867,321.725800 
	C266.501984,321.588959 247.675735,321.568176 228.852448,321.740143 
	C224.926819,321.776031 224.099045,320.232117 224.176605,316.705750 
	C224.370712,307.880676 224.016678,299.040405 224.334442,290.222534 
	C224.489105,285.930939 223.301025,283.156860 219.544632,280.818878 
	C202.973724,270.505249 190.949707,256.233307 182.752762,238.484985 
	C160.927597,191.228119 192.588730,139.633331 237.999969,129.225174 
	C283.001282,118.910957 326.846191,146.123520 336.191895,190.256149 
	C343.033600,222.564423 334.231201,250.236923 307.456177,271.482056 
M232.894241,205.500153 
	C237.233475,209.355225 241.630722,213.148163 245.871902,217.108246 
	C246.958557,218.122849 247.552200,219.665451 249.066254,222.065460 
	C239.117477,221.479538 235.852890,213.385529 229.370789,209.778107 
	C228.560410,211.089996 227.665604,212.112030 227.235229,213.302017 
	C223.388840,223.937653 219.179077,234.470917 215.969681,245.299103 
	C213.156525,254.790375 216.938843,258.184875 226.441376,255.753311 
	C226.750443,255.674210 227.011719,255.423874 227.310059,255.285095 
	C236.697754,250.918243 246.529892,247.293976 255.362610,242.001633 
	C265.995514,235.630676 276.180359,228.335876 285.804260,220.512421 
	C293.594482,214.179611 293.970367,208.969955 289.351501,199.886978 
	C287.564789,196.373337 285.140503,193.183899 283.006683,189.846756 
	C283.322174,189.390015 283.637665,188.933289 283.953186,188.476562 
	C286.468964,189.349548 289.190094,189.870987 291.446045,191.188782 
	C293.989014,192.674194 296.047913,194.963882 298.433655,196.748215 
	C302.852173,200.052902 306.817963,199.703308 309.092316,195.945831 
	C312.012360,191.121597 310.861145,186.282074 305.876160,184.039932 
	C303.398743,182.925644 300.546875,182.647690 297.868469,181.975113 
	C296.609131,181.658875 295.359497,181.304169 293.127686,180.703918 
	C295.727173,179.351334 297.305725,178.592392 298.821533,177.723907 
	C300.375977,176.833313 301.965485,175.959167 303.371185,174.862015 
	C308.010651,171.240921 308.218323,166.152420 304.015564,161.522018 
	C299.998779,157.096466 294.205139,156.551605 290.676453,160.876648 
	C288.036896,164.111908 286.309753,168.091537 284.407166,171.345001 
	C283.093109,168.003342 282.170349,163.788574 279.891846,160.518433 
	C278.369324,158.333282 274.968628,156.509262 272.313843,156.373550 
	C270.346771,156.273010 266.971741,158.833847 266.484222,160.776382 
	C265.829620,163.384796 266.756409,166.862183 268.109619,169.370148 
	C269.473358,171.897644 272.507843,173.469589 274.217804,175.880447 
	C275.734222,178.018402 276.437317,180.733185 278.021149,184.401733 
	C253.156250,174.221313 251.347748,174.445007 242.202682,188.262222 
	C247.096634,192.630249 252.139771,196.949417 256.933380,201.529709 
	C258.236847,202.775177 259.955078,205.717346 259.483337,206.322784 
	C257.388824,209.010895 255.356186,206.363388 253.859192,205.129883 
	C248.896942,201.040985 244.196136,196.634796 238.661179,191.695450 
	C236.508682,196.267776 234.464310,200.610397 232.894241,205.500153 
z"/>
<path fill="#00E676" opacity="1.000000" stroke="none" 
	d="
M232.657089,205.226593 
	C234.464310,200.610397 236.508682,196.267776 238.661179,191.695450 
	C244.196136,196.634796 248.896942,201.040985 253.859192,205.129883 
	C255.356186,206.363388 257.388824,209.010895 259.483337,206.322784 
	C259.955078,205.717346 258.236847,202.775177 256.933380,201.529709 
	C252.139771,196.949417 247.096634,192.630249 242.202682,188.262222 
	C251.347748,174.445007 253.156250,174.221313 278.021149,184.401733 
	C276.437317,180.733185 275.734222,178.018402 274.217804,175.880447 
	C272.507843,173.469589 269.473358,171.897644 268.109619,169.370148 
	C266.756409,166.862183 265.829620,163.384796 266.484222,160.776382 
	C266.971741,158.833847 270.346771,156.273010 272.313843,156.373550 
	C274.968628,156.509262 278.369324,158.333282 279.891846,160.518433 
	C282.170349,163.788574 283.093109,168.003342 284.407166,171.345001 
	C286.309753,168.091537 288.036896,164.111908 290.676453,160.876648 
	C294.205139,156.551605 299.998779,157.096466 304.015564,161.522018 
	C308.218323,166.152420 308.010651,171.240921 303.371185,174.862015 
	C301.965485,175.959167 300.375977,176.833313 298.821533,177.723907 
	C297.305725,178.592392 295.727173,179.351334 293.127686,180.703918 
	C295.359497,181.304169 296.609131,181.658875 297.868469,181.975113 
	C300.546875,182.647690 303.398743,182.925644 305.876160,184.039932 
	C310.861145,186.282074 312.012360,191.121597 309.092316,195.945831 
	C306.817963,199.703308 302.852173,200.052902 298.433655,196.748215 
	C296.047913,194.963882 293.989014,192.674194 291.446045,191.188782 
	C289.190094,189.870987 286.468964,189.349548 283.953186,188.476562 
	C283.637665,188.933289 283.322174,189.390015 283.006683,189.846756 
	C285.140503,193.183899 287.564789,196.373337 289.351501,199.886978 
	C293.970367,208.969955 293.594482,214.179611 285.804260,220.512421 
	C276.180359,228.335876 265.995514,235.630676 255.362610,242.001633 
	C246.529892,247.293976 236.697754,250.918243 227.310059,255.285095 
	C227.011719,255.423874 226.750443,255.674210 226.441376,255.753311 
	C216.938843,258.184875 213.156525,254.790375 215.969681,245.299103 
	C219.179077,234.470917 223.388840,223.937653 227.235229,213.302017 
	C227.665604,212.112030 228.560410,211.089996 229.370789,209.778107 
	C235.852890,213.385529 239.117477,221.479538 249.066254,222.065460 
	C247.552200,219.665451 246.958557,218.122849 245.871902,217.108246 
	C241.630722,213.148163 237.233475,209.355225 232.657089,205.226593 
z"/>
</svg>